<svg xmlns="http://www.w3.org/2000/svg" viewBox="0 0 120 120">
  <g fill="none" fill-rule="evenodd">
    <path d="M0 0h120v120H0V0z"/>
    <path fill="#FFF" d="M113.377146 0H6.62285402C2.96477253 0 0 2.96432291 0 6.62285402V113.377146C0 117.034778 2.96477253 120 6.62285402 120H64.0955585V73.5298658H48.45744V55.419305h15.6381185V42.0634409c0-15.4996365 9.4666797-23.9393917 23.2932925-23.9393917 6.622854 0 12.3154511.4932296 13.974087.7135418v16.1978913l-9.5894249.0044961c-7.5198394 0-8.9756982 3.5731039-8.9756982 8.8165339V55.419305h17.9338611l-2.3353089 18.1105608H82.7978149V120h30.5793311C117.034778 120 120 117.034778 120 113.377146V6.62285402C120 2.96432291 117.034778 0 113.377146 0"/>
  </g>
</svg>
